<svg xmlns="http://www.w3.org/2000/svg" width="252" height="252" viewBox="0 0 252 252"><path fill="#fff" d="M126 0a126 126 0 1 0 126 126A126 126 0 0 0 126 0zm71.7 78.8l21.8-12.6a5.1 5.1 0 0 1 6.9 1.9 5.1 5.1 0 0 1-1.8 6.9l-21.9 12.6a5 5 0 0 1-6.8-1.9 5.1 5.1 0 0 1 1.8-6.9zM121 15.1a5 5 0 1 1 10 0v25.2a5 5 0 1 1-10 0zM68 25.6a5 5 0 0 1 6.9 1.9l12.6 21.8a5 5 0 1 1-8.7 5L66.2 32.5a5.1 5.1 0 0 1 1.8-6.9zM10.1 126a5 5 0 0 1 5-5.1h25.2a5.1 5.1 0 0 1 5.1 5.1 5 5 0 0 1-5.1 5H15.1a5 5 0 0 1-5-5zm44.2 47.2l-21.8 12.6a5 5 0 0 1-6.9-1.9 4.9 4.9 0 0 1 1.8-6.8l21.9-12.6a5.1 5.1 0 0 1 6.9 1.8 5.2 5.2 0 0 1-1.9 6.9zm1.9-87.5a5.1 5.1 0 0 1-6.9 1.8L27.5 74.9a5 5 0 1 1 5-8.7l21.8 12.6a5.1 5.1 0 0 1 1.9 6.9zm31.3 117l-12.6 21.8a5 5 0 1 1-8.7-5l12.6-21.8a5 5 0 1 1 8.7 5zm43.5 34.2a5.1 5.1 0 0 1-10.1 0v-25.2a5.1 5.1 0 0 1 5.1-5.1 5 5 0 0 1 5 5.1zm52.9-10.5a5.1 5.1 0 0 1-6.9-1.8l-12.5-21.9a4.9 4.9 0 0 1 1.8-6.8 5.1 5.1 0 0 1 6.9 1.8l12.6 21.8a5.1 5.1 0 0 1-1.9 6.9zm2-193.9l-12.7 21.8a4.9 4.9 0 0 1-6.8 1.9 5.1 5.1 0 0 1-1.9-6.9l12.6-21.8a5.1 5.1 0 0 1 8.8 5zM226.4 184a5.1 5.1 0 0 1-6.9 1.8l-21.8-12.6a4.9 4.9 0 0 1-1.9-6.8 5 5 0 0 1 6.9-1.9l21.8 12.6a5.1 5.1 0 0 1 1.9 6.9zm10.5-52.9h-25.2a5.1 5.1 0 1 1 0-10.1h25.2a5.1 5.1 0 0 1 0 10.1z"/></svg>